<svg width="60" height="60" viewBox="0 0 60 60" fill="none" xmlns="http://www.w3.org/2000/svg">
<path d="M11.2173 21.75C11.2173 26.7375 14.9601 30.5 19.9215 30.5C24.8829 30.5 28.6257 26.7375 28.6257 21.75C28.6257 16.7625 24.8829 13 19.9215 13C14.9601 13 11.2173 16.7625 11.2173 21.75ZM47.2775 20.37H42.3037V27.87H34.8429V32.87H42.3037V40.37H47.2775V32.87H54.7382V27.87H47.2775V20.37ZM9.97382 47.87H34.8429V45.37C34.8429 38.4775 29.2648 32.87 22.4084 32.87H17.4346C10.5781 32.87 5 38.4775 5 45.37V47.87H9.97382Z" fill="white"/>
</svg>
