<svg width="60" height="60" viewBox="0 0 60 60" fill="none" xmlns="http://www.w3.org/2000/svg">
<path fill-rule="evenodd" clip-rule="evenodd" d="M19.3717 8C17.9471 8 16.5807 8.56893 15.5733 9.58162C14.5659 10.5943 14 11.9678 14 13.4V45.8C14 47.2322 14.5659 48.6057 15.5733 49.6184C16.5807 50.6311 17.9471 51.2 19.3717 51.2H40.8586C42.2833 51.2 43.6496 50.6311 44.657 49.6184C45.6644 48.6057 46.2304 47.2322 46.2304 45.8V22.6178C46.2301 21.1857 45.6639 19.8125 44.6565 18.8L35.4869 9.5822C34.4798 8.56943 33.1137 8.00031 31.6891 8H19.3717ZM24.7435 35C24.7435 34.2839 24.4605 33.5972 23.9568 33.0908C23.4531 32.5845 22.7699 32.3 22.0576 32.3C21.3453 32.3 20.6621 32.5845 20.1584 33.0908C19.6547 33.5972 19.3717 34.2839 19.3717 35V43.1C19.3717 43.8161 19.6547 44.5028 20.1584 45.0092C20.6621 45.5155 21.3453 45.8 22.0576 45.8C22.7699 45.8 23.4531 45.5155 23.9568 45.0092C24.4605 44.5028 24.7435 43.8161 24.7435 43.1V35ZM30.1152 26.9C30.8275 26.9 31.5107 27.1845 32.0144 27.6908C32.5181 28.1972 32.801 28.8839 32.801 29.6V43.1C32.801 43.8161 32.5181 44.5028 32.0144 45.0092C31.5107 45.5155 30.8275 45.8 30.1152 45.8C29.4028 45.8 28.7197 45.5155 28.216 45.0092C27.7123 44.5028 27.4293 43.8161 27.4293 43.1V29.6C27.4293 28.8839 27.7123 28.1972 28.216 27.6908C28.7197 27.1845 29.4028 26.9 30.1152 26.9V26.9ZM40.8586 24.2C40.8586 23.4839 40.5757 22.7972 40.072 22.2908C39.5683 21.7845 38.8851 21.5 38.1728 21.5C37.4604 21.5 36.7773 21.7845 36.2736 22.2908C35.7699 22.7972 35.4869 23.4839 35.4869 24.2V43.1C35.4869 43.8161 35.7699 44.5028 36.2736 45.0092C36.7773 45.5155 37.4604 45.8 38.1728 45.8C38.8851 45.8 39.5683 45.5155 40.072 45.0092C40.5757 44.5028 40.8586 43.8161 40.8586 43.1V24.2Z" fill="white"/>
</svg>
