<svg width="60" height="60" viewBox="0 0 60 60" fill="none" xmlns="http://www.w3.org/2000/svg">
<path d="M9 39C9 38.2044 9.31442 37.4413 9.87408 36.8787C10.4337 36.3161 11.1928 36 11.9843 36H17.9529C18.7444 36 19.5034 36.3161 20.0631 36.8787C20.6228 37.4413 20.9372 38.2044 20.9372 39V48C20.9372 48.7956 20.6228 49.5587 20.0631 50.1213C19.5034 50.6839 18.7444 51 17.9529 51H11.9843C11.1928 51 10.4337 50.6839 9.87408 50.1213C9.31442 49.5587 9 48.7956 9 48V39ZM23.9215 27C23.9215 26.2044 24.2359 25.4413 24.7955 24.8787C25.3552 24.3161 26.1143 24 26.9058 24H32.8743C33.6658 24 34.4249 24.3161 34.9846 24.8787C35.5442 25.4413 35.8586 26.2044 35.8586 27V48C35.8586 48.7956 35.5442 49.5587 34.9846 50.1213C34.4249 50.6839 33.6658 51 32.8743 51H26.9058C26.1143 51 25.3552 50.6839 24.7955 50.1213C24.2359 49.5587 23.9215 48.7956 23.9215 48V27ZM38.8429 12C38.8429 11.2044 39.1573 10.4413 39.717 9.87868C40.2767 9.31607 41.0357 9 41.8272 9H47.7958C48.5873 9 49.3464 9.31607 49.906 9.87868C50.4657 10.4413 50.7801 11.2044 50.7801 12V48C50.7801 48.7956 50.4657 49.5587 49.906 50.1213C49.3464 50.6839 48.5873 51 47.7958 51H41.8272C41.0357 51 40.2767 50.6839 39.717 50.1213C39.1573 49.5587 38.8429 48.7956 38.8429 48V12Z" fill="white"/>
</svg>
